<svg width="26" height="26" viewBox="0 0 26 26" fill="none" xmlns="http://www.w3.org/2000/svg">
<path id="Vector" d="M3.74412 20.668C3.74412 20.668 6.4375 17.2291 13.0833 17.2291C19.7292 17.2291 22.4237 20.668 22.4237 20.668M13.0833 0.916626C6.40971 0.916626 1 6.32633 1 13C1 19.6736 6.40971 25.0833 13.0833 25.0833C19.757 25.0833 25.1667 19.6736 25.1667 13C25.1667 6.32633 19.757 0.916626 13.0833 0.916626ZM13.0833 13C14.0447 13 14.9668 12.618 15.6466 11.9382C16.3264 11.2584 16.7083 10.3364 16.7083 9.37496C16.7083 8.41355 16.3264 7.49152 15.6466 6.8117C14.9668 6.13188 14.0447 5.74996 13.0833 5.74996C12.1219 5.74996 11.1999 6.13188 10.5201 6.8117C9.84025 7.49152 9.45833 8.41355 9.45833 9.37496C9.45833 10.3364 9.84025 11.2584 10.5201 11.9382C11.1999 12.618 12.1219 13 13.0833 13Z" stroke="black" stroke-width="1.5" stroke-linecap="round" stroke-linejoin="round"/>
</svg>
