<svg width="446" height="446" viewBox="0 0 446 446" fill="none" xmlns="http://www.w3.org/2000/svg">
<path opacity="0.5" d="M223.347 414.057C332.378 414.057 420.765 401.801 420.765 386.682C420.765 371.563 332.378 359.307 223.347 359.307C114.316 359.307 25.9297 371.563 25.9297 386.682C25.9297 401.801 114.316 414.057 223.347 414.057Z" fill="#F5F5F5"/>
<path d="M187.826 337.533C187.882 333.758 187.634 329.984 187.085 326.249C186.515 322.387 184.713 310.077 178.219 300.774C168.407 286.707 157.284 292.977 145.884 278.474C139.355 270.151 141.192 265.789 133.735 259.126C127.143 253.248 120.061 251.098 112.523 249.84C93.4433 246.7 62.3125 249.644 62.3125 249.644C64.9885 279.812 75.0859 292.291 83.8365 298.106C96.1193 306.277 105.566 301.273 116.519 311.049C130.765 323.796 121.407 338.175 134.689 351.448C134.689 351.448 140.505 357.246 185.658 365.827L187.826 337.533Z" fill="#F5F5F5"/>
<path d="M185.676 365.8C185.676 365.8 150.79 306.429 137.508 294.797C124.226 283.165 62.3125 249.617 62.3125 249.617" stroke="#D6D6D6" strokeWidth="0.47" strokeLinecap="round" strokeLinejoin="round"/>
<path d="M107.111 274.932L68.1484 277.118" stroke="#D6D6D6" strokeWidth="0.47" strokeLinecap="round" strokeLinejoin="round"/>
<path d="M115.164 279.758L117.751 250.857" stroke="#D6D6D6" strokeWidth="0.47" strokeLinecap="round" strokeLinejoin="round"/>
<path d="M132.879 291.202L99.1523 303.664" stroke="#D6D6D6" strokeWidth="0.47" strokeLinecap="round" strokeLinejoin="round"/>
<path d="M147.145 306.018L151.489 284.111" stroke="#D6D6D6" strokeWidth="0.47" strokeLinecap="round" strokeLinejoin="round"/>
<path d="M158.033 321.539L125.359 327.507" stroke="#D6D6D6" strokeWidth="0.47" strokeLinecap="round" strokeLinejoin="round"/>
<path d="M166.555 334.625L178.846 301.701" stroke="#D6D6D6" strokeWidth="0.47" strokeLinecap="round" strokeLinejoin="round"/>
<path d="M174.305 346.997L136.52 352.563" stroke="#D6D6D6" strokeWidth="0.47" strokeLinecap="round" strokeLinejoin="round"/>
<path d="M167.088 342.18C165.696 338.67 164.023 335.279 162.084 332.038C160.095 328.693 153.717 317.998 144.164 311.888C129.723 302.638 121.864 312.682 105.746 303.61C96.5401 298.41 96.5669 293.682 87.1206 290.382C78.7804 287.465 71.4125 288.17 63.9732 289.9C45.1431 294.298 17.5 308.909 17.5 308.909C31.4598 335.785 45.6069 343.438 55.9184 345.481C70.3867 348.335 77.2105 340.129 91.0632 344.954C109.091 351.27 105.96 368.146 123.309 375.327C123.309 375.327 130.9 378.467 175.937 369.136L167.088 342.18Z" fill="#F5F5F5"/>
<path d="M175.91 369.127C175.91 369.127 120.981 327.596 104.256 321.923C87.5309 316.25 17.5 308.909 17.5 308.909" stroke="#D6D6D6" strokeWidth="0.47" strokeLinecap="round" strokeLinejoin="round"/>
<path d="M68.5778 315.188L33.4062 332.092" stroke="#D6D6D6" strokeWidth="0.47" strokeLinecap="round" strokeLinejoin="round"/>
<path d="M77.8516 316.562L69.1992 288.874" stroke="#D6D6D6" strokeWidth="0.47" strokeLinecap="round" strokeLinejoin="round"/>
<path d="M98.6013 320.371L72.207 344.776" stroke="#D6D6D6" strokeWidth="0.47" strokeLinecap="round" strokeLinejoin="round"/>
<path d="M117.448 328.604L113.086 306.705" stroke="#D6D6D6" strokeWidth="0.47" strokeLinecap="round" strokeLinejoin="round"/>
<path d="M133.442 338.791L105.531 356.791" stroke="#D6D6D6" strokeWidth="0.47" strokeLinecap="round" strokeLinejoin="round"/>
<path d="M146.312 347.621L145.09 312.503" stroke="#D6D6D6" strokeWidth="0.47" strokeLinecap="round" strokeLinejoin="round"/>
<path d="M158.212 356.095L125.422 375.684" stroke="#D6D6D6" strokeWidth="0.47" strokeLinecap="round" strokeLinejoin="round"/>
<path d="M294.181 369.574H175.242L186.695 290.926H282.728L294.181 369.574Z" fill="#BCBCBC"/>
<path d="M382.586 91.2605H86.8257C79.3129 91.2605 73.2227 97.3508 73.2227 104.863V291.193C73.2227 298.706 79.3129 304.796 86.8257 304.796H382.586C390.099 304.796 396.189 298.706 396.189 291.193V104.863C396.189 97.3508 390.099 91.2605 382.586 91.2605Z" fill="#BCBCBC"/>
<path d="M374.754 97.6919H94.6655C87.1528 97.6919 81.0625 103.782 81.0625 111.295V268.795C81.0625 276.308 87.1528 282.398 94.6655 282.398H374.754C382.266 282.398 388.357 276.308 388.357 268.795V111.295C388.357 103.782 382.266 97.6919 374.754 97.6919Z" fill="#EAD3E0"/>
<path d="M319.39 375.3H150.035V367.121C150.035 364.089 151.237 361.181 153.377 359.034C155.517 356.888 158.421 355.677 161.453 355.667H307.937C310.975 355.667 313.888 356.874 316.036 359.022C318.184 361.17 319.39 364.083 319.39 367.121V375.3Z" fill="#BCBCBC"/>
<path d="M91.082 282.389H372.66" stroke="#262626" strokeLinecap="round" strokeLinejoin="round"/>
<path d="M157.492 371.215V366.915C157.492 365.669 157.987 364.473 158.869 363.591C159.751 362.71 160.946 362.214 162.193 362.214H289.214" stroke="#262626" strokeLinecap="round" strokeLinejoin="round"/>
<path d="M275.707 311.076L280.212 345.445" stroke="#262626" strokeLinecap="round" strokeLinejoin="round"/>
<path d="M231.873 300.881C235.514 300.881 238.465 297.929 238.465 294.289C238.465 290.648 235.514 287.697 231.873 287.697C228.233 287.697 225.281 290.648 225.281 294.289C225.281 297.929 228.233 300.881 231.873 300.881Z" fill="white"/>
<path d="M325.578 110.225H360.553C363.754 110.225 366.824 111.496 369.087 113.759C371.351 116.023 372.622 119.093 372.622 122.293V194.965" stroke="white" strokeLinecap="round" strokeLinejoin="round"/>
<path d="M352.339 133.247C353.882 129.266 355.891 125.481 358.324 121.972C360.354 119.27 362.999 117.089 366.04 115.612C367.867 114.653 369.818 113.951 371.838 113.525C373.784 113.125 375.701 112.592 377.573 111.928C379.362 111.282 381.047 110.381 382.578 109.252C384.295 107.889 385.601 106.077 386.351 104.016C388.028 99.9725 388.09 96.7018 386.538 94.2042C384.905 91.6114 382.481 89.6129 379.625 88.5043C375.266 86.7203 371.755 86.6876 369.091 88.4062C366.415 90.1902 364.042 93 361.955 96.9426L346.014 90.3151C347.527 86.5358 349.75 83.081 352.562 80.1373C355.101 77.4708 358.191 75.3889 361.616 74.0361C365.12 72.7246 368.86 72.1595 372.596 72.377C376.757 72.6115 380.845 73.5746 384.674 75.2224C393.594 78.9153 399.865 83.6459 403.486 89.4141C407.108 95.1824 407.232 102.143 403.861 110.296C402.931 112.642 401.695 114.856 400.186 116.879C398.882 118.579 397.312 120.058 395.538 121.259C393.725 122.454 391.768 123.416 389.714 124.122C387.567 124.871 385.188 125.576 382.578 126.236C380.525 126.767 378.518 127.459 376.574 128.305C375.063 128.974 373.675 129.894 372.471 131.026C371.348 132.101 370.395 133.34 369.644 134.701C368.794 136.249 368.034 137.846 367.369 139.482L352.339 133.247ZM341.902 156.894L348.628 140.704L365.308 147.635L358.583 163.825L341.902 156.894Z" fill="#FCA83A"/>
<path d="M255.11 157.545V144.326C255.112 143.294 254.909 142.272 254.515 141.319C254.122 140.366 253.544 139.499 252.814 138.769C252.085 138.04 251.22 137.461 250.267 137.066C249.314 136.67 248.292 136.467 247.261 136.467H170.549C169.517 136.467 168.496 136.67 167.543 137.066C166.59 137.461 165.724 138.04 164.995 138.769C164.266 139.499 163.688 140.366 163.294 141.319C162.9 142.272 162.698 143.294 162.699 144.326V245.612C162.699 247.694 163.526 249.691 164.998 251.163C166.47 252.635 168.467 253.462 170.549 253.462H293.226C295.307 253.462 297.304 252.635 298.776 251.163C300.248 249.691 301.075 247.694 301.075 245.612V165.395C301.075 163.313 300.248 161.316 298.776 159.844C297.304 158.372 295.307 157.545 293.226 157.545H255.11Z" fill="#F5F5F5"/>
<path d="M247.333 176.01L231.875 191.468L216.416 176.01L207.086 185.34L222.544 200.798L207.086 216.257L216.416 225.587L231.875 210.129L247.333 225.587L256.663 216.257L241.205 200.798L256.663 185.34L247.333 176.01Z" fill="#D6D6D6"/>
<path d="M64.367 374.542V364.364H45.6172V392.355L87.9426 393.033V387.94L64.367 374.542Z" fill="#F7A99C"/>
<path d="M89.4379 393.033V390.616C89.4329 389.401 89.0984 388.21 88.4701 387.17C87.8417 386.13 86.9431 385.28 85.8699 384.711L68.0299 375.077C64.035 376.245 59.8304 376.51 55.7203 375.853C51.0195 375.059 46.5417 372.927 45.0163 374.711C44.6652 375.183 44.5001 375.767 44.5525 376.353V391.151C44.5549 391.649 44.7539 392.127 45.1064 392.479C45.4588 392.832 45.9362 393.031 46.4346 393.033H89.4379Z" fill="#FFC001"/>
<path d="M89.4385 391.419H44.5977" stroke="#3897E9" strokeWidth="0.73" strokeLinecap="round" strokeLinejoin="round"/>
<path d="M79.5573 381.482L77.0508 384.8" stroke="#3897E9" strokeWidth="0.73" strokeLinecap="round" strokeLinejoin="round"/>
<path d="M77.7175 380.447L75.2109 383.765" stroke="#3897E9" strokeWidth="0.73" strokeLinecap="round" strokeLinejoin="round"/>
<path d="M75.8006 379.484L73.2852 382.802" stroke="#3897E9" strokeWidth="0.73" strokeLinecap="round" strokeLinejoin="round"/>
<path d="M72.9633 377.726C63.8292 381.212 53.7317 381.212 44.5977 377.726" stroke="#3897E9" strokeWidth="0.73" strokeLinecap="round" strokeLinejoin="round"/>
<path d="M117.796 374.542V364.364H99.0547V392.355L141.38 393.033V387.94L117.796 374.542Z" fill="#F7A99C"/>
<path d="M142.879 393.033V390.616C142.874 389.401 142.54 388.21 141.911 387.17C141.283 386.13 140.385 385.28 139.311 384.711L121.471 375.077C117.476 376.245 113.272 376.51 109.162 375.853C104.47 375.059 99.9831 372.927 98.4578 374.711C98.1066 375.183 97.9415 375.767 97.9939 376.353V391.151C97.9939 391.649 98.191 392.126 98.542 392.479C98.8931 392.831 99.3695 393.031 99.8671 393.033H142.879Z" fill="#FFC001"/>
<path d="M142.88 391.419H98.0391" stroke="#3897E9" strokeWidth="0.73" strokeLinecap="round" strokeLinejoin="round"/>
<path d="M132.996 381.482L130.48 384.8" stroke="#3897E9" strokeWidth="0.73" strokeLinecap="round" strokeLinejoin="round"/>
<path d="M131.16 380.447L128.645 383.765" stroke="#3897E9" strokeWidth="0.73" strokeLinecap="round" strokeLinejoin="round"/>
<path d="M129.233 379.484L126.727 382.802" stroke="#3897E9" strokeWidth="0.73" strokeLinecap="round" strokeLinejoin="round"/>
<path d="M126.405 377.726C117.271 381.212 107.173 381.212 98.0391 377.726" stroke="#3897E9" strokeWidth="0.73" strokeLinecap="round" strokeLinejoin="round"/>
<path d="M107.038 229.583C107.038 229.583 122.469 278.643 124.878 285.395C127.286 292.148 129.463 301.683 128.954 309.997C128.446 318.31 120.418 369.538 120.418 369.538H97.2257C97.2257 369.538 95.5844 315.42 94.7905 311.183C93.9966 306.946 87.2174 282.951 87.2174 282.951C87.2174 282.951 84.9696 311.014 83.1053 318.444C81.241 325.874 66.3089 370.35 66.3089 370.35H44.5977L53.7585 229.583H107.038Z" fill="#20272D"/>
<path d="M142.453 199.701C142.453 199.701 149.83 193.457 151.694 189.354C153.291 185.857 155.521 179.702 156.154 178.008C156.201 177.884 156.29 177.781 156.407 177.719C156.524 177.656 156.659 177.638 156.788 177.669L157.225 177.776C157.55 177.851 157.857 177.99 158.129 178.185C158.4 178.381 158.63 178.628 158.805 178.912C158.98 179.197 159.097 179.513 159.149 179.843C159.2 180.174 159.186 180.511 159.107 180.835L158.375 183.904L166.162 178.792C166.465 178.631 166.816 178.588 167.148 178.671C167.481 178.753 167.77 178.957 167.961 179.241C168.152 179.525 168.231 179.87 168.182 180.209C168.133 180.548 167.96 180.857 167.697 181.076L162.559 184.822L171.095 180.817C171.411 180.675 171.767 180.655 172.097 180.761C172.426 180.866 172.705 181.09 172.879 181.388C173.063 181.711 173.11 182.094 173.011 182.452C172.913 182.81 172.676 183.114 172.353 183.297H172.451C172.843 183.162 173.272 183.188 173.644 183.37C174.016 183.551 174.301 183.873 174.436 184.265C174.571 184.656 174.544 185.086 174.363 185.458C174.181 185.83 173.859 186.115 173.468 186.25L172.924 186.464C173.091 186.412 173.268 186.395 173.442 186.416C173.617 186.437 173.785 186.494 173.935 186.584C174.086 186.674 174.216 186.795 174.317 186.939C174.418 187.083 174.487 187.246 174.521 187.418C174.618 187.92 174.554 188.44 174.338 188.903C174.122 189.366 173.764 189.749 173.316 189.996C171.015 191.191 169.525 191.503 167.34 193.136C165.618 194.429 166.225 195.259 164.378 197.596C162.131 200.468 160.222 200.548 156.35 203.394C154.282 204.948 152.402 206.738 150.749 208.728L142.453 199.701Z" fill="#F7A99C"/>
<path d="M168.219 179.569C168.328 179.8 168.353 180.062 168.29 180.309C168.226 180.557 168.078 180.774 167.871 180.924C167.122 181.495 161.324 185.786 161.324 185.786" stroke="#262626" strokeWidth="0.41" strokeLinecap="round" strokeLinejoin="round"/>
<path d="M172.406 183.306L164.414 187.017" stroke="#262626" strokeWidth="0.41" strokeLinecap="round" strokeLinejoin="round"/>
<path d="M173.227 186.401L165.199 190.094" stroke="#262626" strokeWidth="0.41" strokeLinecap="round" strokeLinejoin="round"/>
<path d="M157.757 177.981C157.757 177.981 159.158 178.873 159.122 179.854C159.086 180.835 157.668 187.168 157.668 187.168" stroke="#262626" strokeWidth="0.41" strokeLinecap="round" strokeLinejoin="round"/>
<path d="M97.2284 369.538C97.2284 369.538 95.1233 314.047 94.9538 312.619C94.7843 311.192 86.9258 281.81 86.9258 281.81L88.3262 268.831C88.3262 268.831 104.284 308.079 104.284 310.693C104.284 313.306 106.068 369.565 106.068 369.565L97.2284 369.538Z" fill="#484B4C"/>
<path d="M84.0156 315.081L89.6798 253.765" stroke="#262626" strokeWidth="0.41" strokeLinecap="round" strokeLinejoin="round"/>
<path d="M121.32 364.828H97.0039L97.1912 369.538H120.428L121.32 364.828Z" fill="#262626"/>
<path d="M67.7183 366.175H44.8742L44.5977 370.385H66.3089L67.7183 366.175Z" fill="#262626"/>
<path d="M122.738 290.248C125.815 299.99 126.298 310.367 124.139 320.353" stroke="white" strokeWidth="0.41" strokeLinecap="round" strokeLinejoin="round"/>
<path d="M148.581 193.109C146.075 194.955 143.209 196.255 140.17 196.927C134.916 197.819 130.358 194.733 129.136 193.903C125.809 191.628 124.578 188.935 122.374 185.777C115.845 176.438 111.795 170.613 106.122 167.348C103.187 165.653 98.2903 163.736 90.5567 164.324C88.8262 163.709 86.0967 164.199 84.2057 164.199H79.5851C76.5523 164.565 54.2077 167.161 50.4078 163.673C49.5664 162.994 49.0199 162.016 48.8825 160.944C48.8825 159.82 49.5693 158.651 51.4247 157.242C55.9471 153.799 64.2516 151.23 67.0257 150.409L65.3309 137.734H61.6024C57.8649 137.734 44.6544 139.937 37.5184 142.435C27.528 145.922 22.176 148.465 19.5357 154.254C16.2353 161.506 19.7587 169.302 20.6685 171.326C25.2534 181.469 35.4311 185.598 41.5681 188.051C45.9253 189.805 50.497 190.969 55.1621 191.512L52.2721 237.656L105.301 240.537H113.285C113.9 233.481 110.85 211.582 111.242 204.42C118.012 213.848 129.234 218.602 139.875 216.56C151.668 214.294 157.59 204.678 158.554 203.064C154.424 194.947 148.581 193.109 148.581 193.109Z" fill="#FF9900"/>
<path d="M82.1797 167.741H85.5247V186.937C85.5247 187.687 85.2268 188.406 84.6965 188.936C84.1662 189.466 83.447 189.764 82.697 189.764H82.1886V167.741H82.1797Z" fill="white"/>
<path d="M113.345 238.102C111.498 238.441 86.4153 242.624 68.6823 223.892C53.7146 208.095 55.4807 188.096 55.7929 185.135C54.8712 199.02 53.9405 212.903 53.001 226.782H52.9475L52.2695 237.656L60.583 238.102V238.048C72.9818 239.029 85.7671 239.743 98.939 240.189C103.762 240.349 108.519 240.465 113.211 240.537L113.345 238.102Z" fill="#FCA83A"/>
<path d="M99.2857 147.528C99.9993 144.028 100.168 140.438 99.7853 136.886C99.7229 135.316 99.2189 133.795 98.3313 132.498C97.2299 131.046 95.6497 130.032 93.8713 129.634C90.6601 128.992 89.8484 131.32 85.2813 131.882C81.3387 132.373 80.5626 130.812 77.9134 131.936C75.0233 133.158 73.5961 136.021 73.159 136.895C72.4039 138.472 71.9847 140.188 71.9281 141.935C71.8822 143.446 72.0903 144.953 72.5436 146.395C73.7803 150.95 74.7719 155.569 75.5139 160.23L77.3604 160.159L99.2857 147.528Z" fill="#262626"/>
<path d="M83.6686 170.47C82.0126 170.47 80.4244 169.812 79.2534 168.641C78.0825 167.47 77.4246 165.882 77.4246 164.226L77.3711 150.784H89.8591V164.226C89.8592 165.873 89.2087 167.453 88.0492 168.622C86.8898 169.792 85.3153 170.456 83.6686 170.47Z" fill="#F7A99C"/>
<path d="M89.8772 160.444L81.7422 156.261C82.041 158.708 83.2748 160.946 85.1853 162.505C86.5465 163.557 88.1745 164.209 89.8861 164.387L89.8772 160.444Z" fill="#FF7769"/>
<path d="M77.0429 146.645C77.0429 146.44 76.472 146.136 76.3025 146.029C76.0252 145.851 75.7252 145.71 75.4105 145.61C74.7973 145.409 74.1413 145.375 73.5106 145.512C72.8771 145.654 72.2983 145.976 71.8441 146.44C71.3898 146.904 71.0795 147.489 70.9505 148.126C70.8508 148.878 70.9814 149.643 71.3252 150.32C71.8129 151.354 72.607 152.214 73.5998 152.782C74.4196 153.246 75.3353 153.514 76.2758 153.567C76.9762 153.585 77.6771 153.55 78.372 153.46C77.926 151.194 77.4889 148.964 77.0429 146.645Z" fill="#F7A99C"/>
<path d="M75.3302 146.779C75.9597 150.732 78.0435 154.308 81.1728 156.805C82.0648 157.492 87.8896 162.068 93.2327 159.838C100.101 156.965 99.3518 145.69 99.3072 145.084C99.1377 143.014 98.656 136.931 93.6251 133.693C92.2762 132.848 90.7738 132.277 89.204 132.013C87.6342 131.75 86.0278 131.798 84.4767 132.156C82.9256 132.514 81.4604 133.174 80.1649 134.099C78.8694 135.024 77.7691 136.196 76.9269 137.546C75.2791 140.323 74.7107 143.61 75.3302 146.779Z" fill="#F7A99C"/>
<path d="M95.3619 145.084C95.4459 145.323 95.5959 145.534 95.7944 145.692C95.993 145.85 96.2321 145.948 96.4843 145.976C96.7364 146.004 96.9913 145.961 97.2197 145.85C97.448 145.739 97.6405 145.567 97.775 145.352C97.9094 145.136 97.9804 144.888 97.9797 144.634C97.979 144.38 97.9067 144.132 97.771 143.918C97.6354 143.703 97.442 143.531 97.213 143.422C96.9841 143.313 96.7289 143.27 96.4769 143.3C96.0928 143.389 95.7597 143.627 95.5506 143.961C95.3416 144.296 95.2738 144.699 95.3619 145.084Z" fill="#262626"/>
<path d="M87.4145 146.083C87.4985 146.322 87.6484 146.533 87.847 146.691C88.0456 146.849 88.2847 146.948 88.5368 146.976C88.789 147.004 89.0439 146.96 89.2723 146.849C89.5006 146.739 89.6931 146.566 89.8276 146.351C89.962 146.136 90.033 145.887 90.0323 145.633C90.0316 145.379 89.9593 145.131 89.8236 144.917C89.688 144.702 89.4945 144.531 89.2656 144.421C89.0366 144.312 88.7815 144.27 88.5295 144.299C88.3387 144.342 88.1583 144.423 87.9988 144.536C87.8393 144.649 87.7038 144.793 87.6001 144.959C87.4964 145.124 87.4266 145.309 87.3948 145.502C87.3629 145.695 87.3696 145.893 87.4145 146.083Z" fill="#262626"/>
<path d="M92.9631 146.404L94.1851 148.045C94.2317 148.116 94.2638 148.195 94.2796 148.279C94.2954 148.362 94.2945 148.447 94.2771 148.53C94.2597 148.613 94.2261 148.692 94.1781 148.762C94.1302 148.832 94.0689 148.891 93.9978 148.937L92.8828 149.615" stroke="#262626" strokeWidth="0.73" strokeLinecap="round" strokeLinejoin="round"/>
<path d="M84.7394 150.231C84.7874 150.579 84.9371 150.905 85.1696 151.168C85.4021 151.431 85.7072 151.62 86.0465 151.711C86.3859 151.801 86.7444 151.79 87.0772 151.677C87.41 151.565 87.7022 151.357 87.9172 151.079C88.1322 150.801 88.2605 150.466 88.286 150.116C88.3114 149.766 88.2329 149.416 88.0602 149.11C87.8876 148.804 87.6285 148.556 87.3154 148.397C87.0024 148.238 86.6493 148.174 86.3004 148.215C86.0645 148.242 85.8365 148.317 85.6297 148.433C85.4229 148.55 85.2415 148.707 85.0961 148.895C84.9507 149.082 84.8443 149.297 84.783 149.527C84.7218 149.756 84.7069 149.996 84.7394 150.231Z" fill="#FF7769"/>
<path d="M76.2023 151.158C76.2138 150.69 76.1259 150.224 75.9445 149.792C75.7631 149.36 75.4922 148.972 75.1498 148.652C74.5715 148.144 73.8322 147.856 73.0625 147.84" stroke="#262626" strokeWidth="0.73" strokeLinecap="round" strokeLinejoin="round"/>
<path d="M75.2563 148.964C75.023 148.932 74.7854 148.955 74.5625 149.031C74.3395 149.107 74.1373 149.234 73.9719 149.401C73.8397 149.55 73.7385 149.724 73.6741 149.912C73.6098 150.1 73.5837 150.3 73.5972 150.498" stroke="#262626" strokeWidth="0.73" strokeLinecap="round" strokeLinejoin="round"/>
<path d="M75.1696 145.548C75.7499 145.623 76.2907 145.883 76.7128 146.288C77.1523 146.8 77.4587 147.413 77.6048 148.072C80.9933 147.669 84.1869 146.272 86.7835 144.058C88.3281 142.709 89.613 141.088 90.5745 139.277C91.5606 140.159 92.6807 140.878 93.8927 141.409C95.9354 142.301 98.4776 142.702 98.8165 142.024C98.8411 141.609 98.7928 141.192 98.6738 140.793C98.6194 140.444 98.5419 140.098 98.4419 139.759C98.1894 139.02 97.8637 138.309 97.4696 137.636C96.6805 136.284 95.6423 135.095 94.4101 134.13C93.6102 133.511 92.735 132.995 91.8054 132.596C90.097 131.923 88.2623 131.63 86.4292 131.738C84.596 131.845 82.8084 132.351 81.1906 133.22C78.6939 134.666 76.7036 136.846 75.4907 139.464C75.0641 140.525 74.7995 141.643 74.7058 142.782C74.6316 143.49 74.6952 144.205 74.8931 144.888C74.9719 145.113 75.0643 145.333 75.1696 145.548Z" fill="#262626"/>
<path d="M98.3249 147.376C98.6538 147.34 98.9865 147.392 99.2882 147.528C99.2459 148.664 99.1327 149.796 98.9493 150.918C98.8899 150.922 98.8303 150.922 98.7709 150.918C98.2977 150.977 97.8205 150.846 97.4441 150.553C97.0677 150.26 96.823 149.83 96.7639 149.357C96.7047 148.883 96.836 148.406 97.1287 148.03C97.4215 147.653 97.8517 147.409 98.3249 147.35V147.376Z" fill="#FF7769"/>
<path d="M85.095 132.391C84.5063 132.168 83.6499 131.856 82.5885 131.552C80.2693 130.883 79.1097 130.553 78.0482 130.66C74.9619 131.062 73.1779 135.12 72.4375 136.842C71.4696 138.771 71.1207 140.951 71.4385 143.086C71.6203 144.071 71.9544 145.022 72.4286 145.905" stroke="#262626" strokeWidth="0.25" strokeLinecap="round" strokeLinejoin="round"/>
<path d="M85.0977 132.016C86.1413 131.561 87.2563 131.186 88.2643 130.669C89.2648 130.041 90.3046 129.478 91.3773 128.983C92.5591 128.494 93.8679 128.403 95.1059 128.725C96.1451 129.084 97.069 129.716 97.7819 130.553C98.7835 131.641 99.5166 132.949 99.9227 134.371C100.681 137.1 100.003 139.955 99.557 142.675" stroke="#262626" strokeWidth="0.25" strokeLinecap="round" strokeLinejoin="round"/>
<path d="M94.3108 153.424C94.386 153.823 94.3365 154.235 94.1689 154.604C94.0013 154.974 93.7239 155.282 93.3744 155.488C93.0249 155.694 92.6205 155.787 92.2161 155.755C91.8118 155.722 91.4273 155.566 91.1151 155.307C90.8029 155.048 90.5782 154.699 90.4716 154.308C90.365 153.916 90.3818 153.502 90.5196 153.12C90.6574 152.739 90.9095 152.409 91.2416 152.176C91.5736 151.943 91.9695 151.818 92.3751 151.818C92.8444 151.776 93.3113 151.921 93.674 152.222C94.0366 152.523 94.2655 152.955 94.3108 153.424Z" fill="white"/>
<path d="M65.625 139.91L69.193 137.734C69.193 137.734 69.9244 134.594 70.9146 133.925C71.9047 133.256 77.1586 131.249 77.1586 131.249L77.9257 131.971C77.9257 131.971 73.8046 135.736 72.9483 137.404C72.092 139.072 71.9404 143.728 71.9404 143.728L67.9085 148.946L66.9184 149.687L65.625 139.91Z" fill="#F7A99C"/>
<path d="M55.7951 187.168L53.9219 211.279" stroke="#262626" strokeWidth="0.41" strokeLinecap="round" strokeLinejoin="round"/>
<path d="M110.305 189.14L111.741 215.739" stroke="#262626" strokeWidth="0.41" strokeLinecap="round" strokeLinejoin="round"/>
<path d="M27.9092 151.158C26.4018 152.349 25.1562 153.837 24.25 155.531C23.3439 157.224 22.7967 159.086 22.6426 161.001C22.4886 162.915 22.7311 164.841 23.3548 166.657C23.9786 168.474 24.9702 170.142 26.2679 171.558" stroke="white" strokeWidth="0.41" strokeLinecap="round" strokeLinejoin="round"/>
<path d="M119.527 206.195C122.408 209.408 126.318 211.517 130.585 212.158C134.852 212.8 139.209 211.934 142.907 209.709" stroke="white" strokeWidth="0.41" strokeLinecap="round" strokeLinejoin="round"/>
<path d="M288.062 227.317L296.331 222.857L308.632 225.15L314.769 218.603L329.29 222.492L337.372 211.449L351.769 220.324L346.863 189.104L327.827 175.769L284.119 182.655C283.333 182.78 282.627 183.212 282.158 183.855C281.688 184.498 281.492 185.302 281.613 186.089L288.062 227.317Z" fill="#F5F5F5"/>
<path d="M332.27 191.397L346.863 189.104L327.828 175.769L330.04 189.764C330.079 190.018 330.168 190.261 330.301 190.481C330.435 190.7 330.61 190.891 330.817 191.042C331.024 191.194 331.259 191.303 331.508 191.364C331.758 191.425 332.017 191.436 332.27 191.397Z" fill="#D6D6D6"/>
<path d="M327.828 175.769L330.04 189.764C330.079 190.019 330.168 190.263 330.302 190.483C330.436 190.703 330.612 190.894 330.82 191.046C331.028 191.198 331.264 191.307 331.515 191.367C331.765 191.427 332.025 191.437 332.279 191.397L346.863 189.104" stroke="#262626" strokeWidth="0.27" strokeLinecap="round" strokeLinejoin="round"/>
<path d="M293.959 268.269C294.02 268.659 294.157 269.033 294.363 269.37C294.569 269.706 294.839 269.999 295.158 270.231C295.477 270.463 295.838 270.63 296.222 270.722C296.606 270.814 297.004 270.829 297.393 270.767L354.713 261.749C355.5 261.624 356.204 261.192 356.672 260.548C357.14 259.904 357.334 259.101 357.211 258.314L351.77 223.767L337.346 214.919L329.265 225.97L314.743 222.108L308.633 228.629L296.359 226.372L288.09 230.832L293.959 268.269Z" fill="#F5F5F5"/>
<path d="M288.115 227.317L296.393 222.857L308.631 225.15L314.768 218.603L329.29 222.492L337.371 211.449L351.786 220.324L346.871 189.104L327.836 175.769L284.128 182.655C283.341 182.78 282.637 183.212 282.169 183.856C281.7 184.499 281.507 185.303 281.63 186.089L288.115 227.317Z" stroke="#262626" strokeWidth="0.27" strokeLinecap="round" strokeLinejoin="round"/>
<path d="M293.968 268.269C294.093 269.055 294.525 269.76 295.169 270.228C295.813 270.696 296.616 270.89 297.402 270.767L354.722 261.749C355.112 261.688 355.486 261.551 355.823 261.345C356.159 261.139 356.452 260.869 356.684 260.55C356.916 260.231 357.083 259.869 357.175 259.486C357.267 259.102 357.282 258.704 357.22 258.314L351.788 223.767L337.355 214.919L329.273 225.97L314.752 222.108L308.633 228.629L296.368 226.372L288.09 230.832L293.968 268.269Z" stroke="#262626" strokeWidth="0.27" strokeLinecap="round" strokeLinejoin="round"/>
<path d="M66.3273 130.321L64.8822 131.704L52.082 120.144L55.766 116.629L66.3273 130.321Z" fill="#FF7129"/>
<path d="M69.4928 127.949L67.5215 128.314L63.1328 111.643L68.1369 110.715L69.4928 127.949Z" fill="#FF7129"/>
<path d="M62.6697 133.461L62.5091 135.459L45.2578 135.325L45.6771 130.25L62.6697 133.461Z" fill="#FF7129"/>
<path d="M268.679 386.29C267.65 385.279 266.831 384.075 266.267 382.748C265.704 381.42 265.407 379.995 265.395 378.552C265.383 377.11 265.654 375.68 266.195 374.343C266.735 373.006 267.534 371.788 268.545 370.76L319.112 319.336L334.785 334.732L284.208 386.191C283.195 387.218 281.99 388.034 280.661 388.595C279.332 389.155 277.906 389.448 276.464 389.457C275.022 389.466 273.592 389.191 272.256 388.648C270.92 388.104 269.705 387.303 268.679 386.29Z" fill="#FF7129"/>
<path opacity="0.2" d="M358.128 339.816C382.656 339.816 402.54 319.932 402.54 295.404C402.54 270.875 382.656 250.991 358.128 250.991C333.599 250.991 313.715 270.875 313.715 295.404C313.715 319.932 333.599 339.816 358.128 339.816Z" fill="#DCF0FF"/>
<path opacity="0.5" d="M317.238 310.247C318.758 314.295 320.862 318.099 323.482 321.539L403.182 293.977C403.121 289.648 402.429 285.351 401.131 281.221L317.238 310.247Z" fill="white"/>
<path opacity="0.5" d="M314.492 297.527C314.655 300.053 315.037 302.56 315.634 305.019L399.188 276.119C398.135 273.816 396.888 271.608 395.459 269.518L314.492 297.527Z" fill="white"/>
<path d="M394.726 258.029C387.496 250.921 378.32 246.118 368.359 244.225C358.398 242.333 348.1 243.436 338.766 247.397C329.433 251.357 321.483 257.997 315.923 266.475C310.363 274.954 307.442 284.89 307.529 295.029C307.617 305.168 310.708 315.053 316.414 323.434C322.119 331.816 330.182 338.317 339.582 342.116C348.983 345.915 359.298 346.841 369.225 344.778C379.152 342.714 388.244 337.753 395.351 330.522C404.881 320.826 410.169 307.741 410.052 294.146C409.935 280.551 404.422 267.559 394.726 258.029ZM329.209 324.688C323.255 318.836 319.17 311.35 317.471 303.177C315.772 295.004 316.534 286.51 319.662 278.77C322.79 271.03 328.143 264.391 335.043 259.693C341.944 254.995 350.083 252.449 358.431 252.377C366.779 252.305 374.961 254.709 381.942 259.287C388.923 263.864 394.39 270.409 397.651 278.094C400.913 285.779 401.823 294.258 400.265 302.459C398.708 310.661 394.753 318.217 388.902 324.171C385.016 328.124 380.39 331.274 375.287 333.439C370.185 335.605 364.706 336.745 359.163 336.793C353.619 336.841 348.121 335.796 342.982 333.719C337.842 331.643 333.162 328.574 329.209 324.688Z" fill="#FF7129"/>
<path d="M322.66 339.433L282.672 380.117" stroke="white" strokeLinecap="round" strokeLinejoin="round"/>
<path d="M362.472 247.013C356.152 246.377 349.769 247.085 343.742 249.09C337.716 251.096 332.182 254.354 327.503 258.651C322.825 262.947 319.109 268.185 316.599 274.019C314.089 279.854 312.842 286.154 312.939 292.505" stroke="white" strokeLinecap="round" strokeLinejoin="round"/>
</svg>
