<svg id="logout" width="28" height="25" viewBox="0 0 28 25" fill="none" xmlns="http://www.w3.org/2000/svg">
<g id="Group">
<path id="Vector" d="M16.8125 6.75V3.875C16.8125 3.1125 16.5096 2.38123 15.9704 1.84207C15.4313 1.3029 14.7 1 13.9375 1H3.875C3.1125 1 2.38123 1.3029 1.84207 1.84207C1.3029 2.38123 1 3.1125 1 3.875V21.125C1 21.8875 1.3029 22.6188 1.84207 23.1579C2.38123 23.6971 3.1125 24 3.875 24H13.9375C14.7 24 15.4313 23.6971 15.9704 23.1579C16.5096 22.6188 16.8125 21.8875 16.8125 21.125V18.25" stroke="black" stroke-width="2" stroke-linecap="round" stroke-linejoin="round"/>
<path id="Vector_2" d="M9.625 12.5H26.875M26.875 12.5L22.5625 8.1875M26.875 12.5L22.5625 16.8125" stroke="black" stroke-width="2" stroke-linecap="round" stroke-linejoin="round"/>
</g>
</svg>
