<svg width="8" height="16" viewBox="0 0 8 16" fill="none" xmlns="http://www.w3.org/2000/svg">
<mask id="path-1-inside-1_856_420" fill="white">
<path d="M6.63277 8L0.166094 14.5415C0.112853 14.5942 0.0707616 14.6568 0.0422553 14.7256C0.0137491 14.7944 -0.000606592 14.8682 2.09321e-05 14.9425C0.000648456 15.0168 0.0162458 15.0903 0.0459099 15.1587C0.0755739 15.227 0.118715 15.2889 0.172839 15.3407C0.226963 15.3926 0.290993 15.4333 0.361225 15.4607C0.431457 15.488 0.506497 15.5013 0.582 15.4999C0.657504 15.4985 0.731972 15.4823 0.801096 15.4524C0.870221 15.4225 0.932628 15.3794 0.984708 15.3255L7.83823 8.39202C7.94196 8.28707 8 8.14643 8 8C8 7.85357 7.94196 7.71293 7.83823 7.60798L0.984707 0.674473C0.932627 0.620645 0.87022 0.577518 0.801095 0.547587C0.73197 0.517656 0.657502 0.501517 0.581999 0.500102C0.506496 0.498686 0.431456 0.512025 0.361224 0.539344C0.290992 0.566663 0.226962 0.607421 0.172838 0.659259C0.118714 0.711096 0.0755726 0.772987 0.0459086 0.841346C0.0162446 0.909704 0.000647229 0.983174 1.97182e-05 1.05751C-0.000607793 1.13184 0.0137479 1.20555 0.0422542 1.27439C0.0707604 1.34322 0.112852 1.40581 0.166093 1.45852L6.63277 8Z"/>
</mask>
<path d="M6.63277 8L13.0332 14.3273L19.2881 8L13.0332 1.67274L6.63277 8ZM0.166094 14.5415L6.49844 20.9369L6.53268 20.903L6.56655 20.8687L0.166094 14.5415ZM0.984708 15.3255L-5.41607 8.99859L-5.44994 9.03286L-5.48345 9.0675L0.984708 15.3255ZM7.83823 8.39202L14.239 14.719L14.2392 14.7188L7.83823 8.39202ZM7.83823 7.60798L14.2392 1.28123L14.239 1.28104L7.83823 7.60798ZM0.984707 0.674473L-5.48345 6.9325L-5.44994 6.96714L-5.41607 7.00141L0.984707 0.674473ZM0.166093 1.45852L6.56654 -4.86874L6.53267 -4.903L6.49844 -4.9369L0.166093 1.45852ZM0.232317 1.67274L-6.23436 8.21422L6.56655 20.8687L13.0332 14.3273L0.232317 1.67274ZM-6.16625 8.14606C-7.06524 9.03618 -7.78371 10.1008 -8.27291 11.2821L8.35742 18.1692C7.92524 19.2128 7.29095 20.1522 6.49844 20.9369L-6.16625 8.14606ZM-8.27291 11.2821C-8.76222 12.4636 -9.0105 13.734 -8.99966 15.0185L8.9997 14.8665C9.00929 16.0023 8.78972 17.1253 8.35742 18.1692L-8.27291 11.2821ZM-8.99966 15.0185C-8.98882 16.3029 -8.71915 17.5687 -8.21024 18.7414L8.30205 11.5759C8.75164 12.6119 8.99011 13.7308 8.9997 14.8665L-8.99966 15.0185ZM-8.21024 18.7414C-7.70146 19.9138 -6.96561 20.9658 -6.05241 21.8405L6.39809 8.84103C7.20305 9.61199 7.85261 10.5402 8.30205 11.5759L-8.21024 18.7414ZM-6.05241 21.8405C-5.13956 22.7148 -4.06742 23.3949 -2.90151 23.8484L3.62396 7.07289C4.64941 7.47178 5.59348 8.0704 6.39809 8.84103L-6.05241 21.8405ZM-2.90151 23.8484C-1.73583 24.3019 -0.494974 24.5217 0.750635 24.4983L0.413365 6.50148C1.50797 6.48097 2.59875 6.6741 3.62396 7.07289L-2.90151 23.8484ZM0.750635 24.4983C1.99628 24.475 3.22856 24.2088 4.37724 23.7114L-2.77505 7.19341C-1.76462 6.75589 -0.681274 6.52199 0.413365 6.50148L0.750635 24.4983ZM4.37724 23.7114C5.52624 23.2139 6.57296 22.493 7.45287 21.5836L-5.48345 9.0675C-4.7077 8.2657 -3.7858 7.63106 -2.77505 7.19341L4.37724 23.7114ZM7.38548 21.6525L14.239 14.719L1.43745 2.06509L-5.41607 8.99859L7.38548 21.6525ZM14.2392 14.7188C15.9936 12.9438 17 10.5358 17 8L-1 8C-1 5.75707 -0.109648 3.63034 1.43726 2.06528L14.2392 14.7188ZM17 8C17 5.4642 15.9936 3.05619 14.2392 1.28123L1.43726 13.9347C-0.109641 12.3697 -1 10.2429 -1 8L17 8ZM14.239 1.28104L7.38548 -5.65246L-5.41607 7.00141L1.43745 13.9349L14.239 1.28104ZM7.45286 -5.58356C6.57292 -6.49305 5.52619 -7.21392 4.37724 -7.71142L-2.77505 8.80659C-3.78575 8.36896 -4.70767 7.73433 -5.48345 6.9325L7.45286 -5.58356ZM4.37724 -7.71142C3.22852 -8.20882 1.99624 -8.47498 0.750633 -8.49832L0.413365 9.49852C-0.681231 9.47801 -1.76458 9.24413 -2.77505 8.80659L4.37724 -7.71142ZM0.750633 -8.49832C-0.49492 -8.52166 -1.73578 -8.30187 -2.90151 -7.84842L3.62396 8.92711C2.59869 9.32592 1.50791 9.51903 0.413365 9.49852L0.750633 -8.49832ZM-2.90151 -7.84842C-4.06738 -7.39491 -5.13952 -6.7148 -6.05242 -5.84045L6.39809 7.15897C5.59345 7.92964 4.64936 8.52824 3.62396 8.92711L-2.90151 -7.84842ZM-6.05242 -5.84045C-6.96566 -4.96577 -7.70149 -3.91377 -8.21024 -2.7414L8.30205 4.42409C7.85263 5.45975 7.20309 6.38796 6.39809 7.15897L-6.05242 -5.84045ZM-8.21024 -2.7414C-8.71915 -1.56865 -8.98882 -0.302854 -8.99966 0.981551L8.9997 1.13346C8.99011 2.2692 8.75164 3.38806 8.30205 4.42409L-8.21024 -2.7414ZM-8.99966 0.981551C-9.0105 2.26598 -8.76222 3.5364 -8.27291 4.71794L8.35742 -2.16916C8.78972 -1.12529 9.00928 -0.00230893 8.9997 1.13346L-8.99966 0.981551ZM-8.27291 4.71794C-7.78371 5.89921 -7.06524 6.96382 -6.16625 7.85394L6.49844 -4.9369C7.29094 -4.15221 7.92523 -3.21276 8.35742 -2.16916L-8.27291 4.71794ZM-6.23436 7.78578L0.232318 14.3273L13.0332 1.67274L6.56654 -4.86874L-6.23436 7.78578Z" fill="white" mask="url(#path-1-inside-1_856_420)"/>
</svg>
