<svg width="64" height="48" viewBox="0 0 64 48" fill="none" xmlns="http://www.w3.org/2000/svg">
<path d="M0 5.6415V4C0 2.93913 0.421427 1.92172 1.17157 1.17157C1.92172 0.421427 2.93913 0 4 0L60 0C61.0609 0 62.0783 0.421427 62.8284 1.17157C63.5786 1.92172 64 2.93913 64 4V5.6415L32 25.6415L0 5.6415ZM33.06 29.6965C32.7421 29.8949 32.3748 30.0001 32 30.0001C31.6252 30.0001 31.2579 29.8949 30.94 29.6965L0 10.3585V44C0 45.0609 0.421427 46.0783 1.17157 46.8284C1.92172 47.5786 2.93913 48 4 48H60C61.0609 48 62.0783 47.5786 62.8284 46.8284C63.5786 46.0783 64 45.0609 64 44V10.3585L33.06 29.6965Z" fill="#9B9B9B"/>
</svg>
