<svg width="26" height="27" viewBox="0 0 26 27" fill="none" xmlns="http://www.w3.org/2000/svg">
<path d="M12.9965 8.99808C10.6094 8.99808 8.66141 11.0211 8.66141 13.5C8.66141 15.9789 10.6094 18.0019 12.9965 18.0019C15.3836 18.0019 17.3316 15.9789 17.3316 13.5C17.3316 11.0211 15.3836 8.99808 12.9965 8.99808ZM25.9985 13.5C25.9985 11.6357 26.0148 9.78837 25.914 7.92748C25.8132 5.76602 25.3384 3.84773 23.8164 2.26716C22.2911 0.683215 20.4472 0.19351 18.3658 0.0888138C16.5706 -0.0158819 14.7917 0.00100455 12.9998 0.00100455C11.2046 0.00100455 9.42566 -0.0158819 7.63373 0.0888138C5.55236 0.19351 3.70515 0.686593 2.18315 2.26716C0.657899 3.85111 0.186339 5.76602 0.0855228 7.92748C-0.0152934 9.79174 0.000967329 11.6391 0.000967329 13.5C0.000967329 15.3609 -0.0152934 17.2116 0.0855228 19.0725C0.186339 21.234 0.661151 23.1523 2.18315 24.7328C3.7084 26.3168 5.55236 26.8065 7.63373 26.9112C9.42891 27.0159 11.2078 26.999 12.9998 26.999C14.7949 26.999 16.5739 27.0159 18.3658 26.9112C20.4472 26.8065 22.2944 26.3134 23.8164 24.7328C25.3416 23.1489 25.8132 21.234 25.914 19.0725C26.0181 17.2116 25.9985 15.3643 25.9985 13.5ZM12.9965 20.4268C9.30533 20.4268 6.32637 17.3332 6.32637 13.5C6.32637 9.66679 9.30533 6.57319 12.9965 6.57319C16.6877 6.57319 19.6666 9.66679 19.6666 13.5C19.6666 17.3332 16.6877 20.4268 12.9965 20.4268ZM19.9398 7.90722C19.078 7.90722 18.382 7.18448 18.382 6.2895C18.382 5.39452 19.078 4.67179 19.9398 4.67179C20.8016 4.67179 21.4976 5.39452 21.4976 6.2895C21.4978 6.50202 21.4577 6.7125 21.3795 6.90889C21.3013 7.10528 21.1866 7.28373 21.0419 7.434C20.8972 7.58427 20.7254 7.70342 20.5363 7.78462C20.3471 7.86583 20.1445 7.90749 19.9398 7.90722Z" fill="white"/>
</svg>
