<svg xmlns="http://www.w3.org/2000/svg" viewBox="0 0 262.42 268.54"><defs><style>.cls-1{fill:#f90;}.cls-2{fill:none;stroke:#f90;stroke-miterlimit:10;strokeWidth:3px;}</style></defs><g id="Layer_2" data-name="Layer 2"><g id="Layer_1-2" data-name="Layer 1"><path class="cls-1" d="M244.06,261.15c-1.06,2.56-2.3,5-5,6.29a8.92,8.92,0,0,1-9.65-.67,18.77,18.77,0,0,1-2.58-2.31Q196.94,234.57,167,204.65c-.66-.66-1.23-1.42-1.95-2.27l-3.72,2.72a85.71,85.71,0,0,1-42.21,16.43c-24.57,2.62-46.61-3.95-65.62-19.59-17.78-14.62-28.35-33.59-31.42-56.52-2.93-22,1.87-42.33,14.3-60.54C51.25,63.12,72,50.3,98.2,46.6c1.78-.25,3.55-.52,5.33-.78h11.74c2.5.33,5,.58,7.5,1,20.58,3.46,38.14,12.61,52,28.24,18.76,21.11,25.92,45.8,21.53,73.68a84.39,84.39,0,0,1-16.06,37.58l-2.47,3.36a20.18,20.18,0,0,1,2.13,1.65q29.4,29.34,58.72,58.76c2.09,2.11,3.62,4.76,5.41,7.15ZM109.38,203.59c38.17-.23,69.53-30.44,69.65-69.5a69.49,69.49,0,0,0-69.45-69.67c-38.21-.17-69.51,31-69.68,69.46C39.74,172.08,70.84,203.28,109.38,203.59Z"/><path class="cls-1" d="M124.36,0c.56,0,.85.41.94,1.1a23.45,23.45,0,0,0,.57,3.55c1,3.24,3.35,4.95,6.58,5.59.43.08.87.11,1.31.15.82.06,1.22.38,1.21,1s-.41.91-1.21,1a16.33,16.33,0,0,0-3,.59,7.83,7.83,0,0,0-5.37,6.57c-.13.75-.16,1.52-.22,2.28,0,.5-.27.84-.8.89a.92.92,0,0,1-1-.85c-.13-.89-.16-1.79-.31-2.67A8.08,8.08,0,0,0,116,12.44c-.38,0-.76-.1-1.14-.12-.72,0-1.14-.37-1.17-.93s.41-1,1.17-1a9.65,9.65,0,0,0,3.87-1A8,8,0,0,0,123.21,3c.11-.71.11-1.44.2-2.16A.91.91,0,0,1,124.36,0Zm-.18,16.34a27.85,27.85,0,0,1,2.24-2.87,26.12,26.12,0,0,1,2.91-2.2,9.89,9.89,0,0,1-5.07-5.08A10.06,10.06,0,0,1,119,11.36,10,10,0,0,1,124.18,16.34Z"/><path class="cls-1" d="M10.67,64.42c.55,0,.85.42.94,1.1a22.08,22.08,0,0,0,.57,3.55c1,3.24,3.35,5,6.57,5.59a11.68,11.68,0,0,0,1.31.15c.83.07,1.22.39,1.21,1s-.4.91-1.2,1a15.61,15.61,0,0,0-3,.58A7.84,7.84,0,0,0,11.73,84c-.13.75-.15,1.52-.22,2.28a.84.84,0,0,1-.79.89.93.93,0,0,1-1-.85c-.12-.88-.15-1.79-.3-2.67a8.09,8.09,0,0,0-7.12-6.78q-.57-.08-1.14-.12C.45,76.7,0,76.37,0,75.81s.4-1,1.17-1a9.72,9.72,0,0,0,3.86-1,8,8,0,0,0,4.49-6.39c.11-.72.11-1.45.2-2.17A.91.91,0,0,1,10.67,64.42Zm-.18,16.35a25.46,25.46,0,0,1,2.24-2.88,27.28,27.28,0,0,1,2.9-2.2,9.84,9.84,0,0,1-5.06-5.08,10.15,10.15,0,0,1-5.24,5.18A9.89,9.89,0,0,1,10.49,80.77Z"/><path class="cls-1" d="M39.94,220.42c.55,0,.85.41.93,1.1a22.09,22.09,0,0,0,.58,3.55c1,3.24,3.34,5,6.57,5.59a11.41,11.41,0,0,0,1.31.15c.83.07,1.22.38,1.21,1s-.4.91-1.2,1a16.27,16.27,0,0,0-3,.59A7.83,7.83,0,0,0,41,240c-.13.75-.16,1.52-.22,2.28-.05.5-.27.84-.8.89a.93.93,0,0,1-1-.85c-.12-.89-.16-1.79-.31-2.67a8.09,8.09,0,0,0-7.11-6.78c-.38-.05-.76-.1-1.14-.12-.72,0-1.15-.37-1.17-.93s.4-1,1.16-1a9.83,9.83,0,0,0,3.87-1,8,8,0,0,0,4.48-6.38c.11-.72.12-1.45.21-2.17A.9.9,0,0,1,39.94,220.42Zm-.18,16.35A25.64,25.64,0,0,1,42,233.89a27.08,27.08,0,0,1,2.91-2.2,9.93,9.93,0,0,1-5.07-5.08,10.06,10.06,0,0,1-5.24,5.17A10,10,0,0,1,39.76,236.77Z"/><path class="cls-1" d="M251.82,173.17c.55,0,.85.41.94,1.1a21,21,0,0,0,.57,3.55c1,3.24,3.34,5,6.57,5.59.43.08.87.11,1.31.15.83.06,1.22.38,1.21,1s-.4.91-1.2,1a16.27,16.27,0,0,0-3,.59,7.83,7.83,0,0,0-5.37,6.57c-.13.75-.16,1.52-.22,2.28,0,.5-.27.84-.8.89a.93.93,0,0,1-1-.85c-.12-.89-.16-1.79-.31-2.67a8.09,8.09,0,0,0-7.11-6.78c-.38-.05-.76-.1-1.14-.12-.72,0-1.15-.37-1.17-.93s.4-1,1.16-1a9.78,9.78,0,0,0,3.87-1,8,8,0,0,0,4.48-6.38c.11-.72.12-1.45.21-2.17A.9.9,0,0,1,251.82,173.17Zm-.18,16.35a25.64,25.64,0,0,1,2.23-2.88,27.08,27.08,0,0,1,2.91-2.2,9.88,9.88,0,0,1-5.06-5.08,10.11,10.11,0,0,1-5.25,5.17A10,10,0,0,1,251.64,189.52Z"/><path class="cls-1" d="M189.7,243.16c.55,0,.85.42.94,1.1a22.08,22.08,0,0,0,.57,3.55c1,3.24,3.35,4.95,6.57,5.59a11.41,11.41,0,0,0,1.31.15c.83.07,1.22.38,1.21,1s-.4.91-1.2,1a16.44,16.44,0,0,0-3,.59,7.84,7.84,0,0,0-5.37,6.57c-.13.75-.15,1.52-.22,2.28a.84.84,0,0,1-.8.89.93.93,0,0,1-1-.85c-.12-.89-.16-1.79-.3-2.67a8.09,8.09,0,0,0-7.12-6.78c-.38,0-.76-.1-1.14-.12-.72,0-1.14-.37-1.17-.93s.4-1,1.16-1a9.9,9.9,0,0,0,3.87-1,8,8,0,0,0,4.49-6.39c.11-.72.11-1.45.2-2.17A.9.9,0,0,1,189.7,243.16Zm-.18,16.35a24.59,24.59,0,0,1,2.24-2.88,26,26,0,0,1,2.9-2.2,9.88,9.88,0,0,1-5.06-5.08,10.13,10.13,0,0,1-5.24,5.17A10,10,0,0,1,189.52,259.51Z"/><circle class="cls-1" cx="109.47" cy="173.74" r="10.8"/><path class="cls-2" d="M91.65,124.05a15.92,15.92,0,1,1-31.83,0"/><path class="cls-2" d="M157.5,124.05a15.92,15.92,0,1,1-31.83,0"/></g></g></svg>