<svg width="43" height="43" viewBox="0 0 43 43" fill="none" xmlns="http://www.w3.org/2000/svg">
<circle cx="21.5" cy="21.5" r="21.5" fill="white"/>
<path d="M29.172 14.8491C28.1103 13.7871 26.7027 13.1414 25.2052 13.0295C23.7077 12.9175 22.2198 13.3467 21.012 14.2391C19.7397 13.2927 18.156 12.8636 16.5799 13.0381C15.0038 13.2126 13.5524 13.9778 12.518 15.1797C11.4835 16.3815 10.9428 17.9306 11.0048 19.5151C11.0668 21.0996 11.7268 22.6017 12.852 23.7191L20.302 31.1691C20.395 31.2628 20.5056 31.3372 20.6274 31.388C20.7493 31.4387 20.88 31.4649 21.012 31.4649C21.144 31.4649 21.2747 31.4387 21.3966 31.388C21.5184 31.3372 21.629 31.2628 21.722 31.1691L29.172 23.7191C29.7546 23.1368 30.2169 22.4454 30.5322 21.6844C30.8476 20.9235 31.0099 20.1078 31.0099 19.2841C31.0099 18.4603 30.8476 17.6447 30.5322 16.8837C30.2169 16.1227 29.7546 15.4313 29.172 14.8491ZM27.762 22.3091L21.012 29.0491L14.262 22.3091C13.6672 21.7118 13.262 20.9521 13.0972 20.1254C12.9325 19.2987 13.0155 18.4418 13.3359 17.6621C13.6564 16.8824 14.1999 16.2147 14.8983 15.7427C15.5968 15.2707 16.4191 15.0155 17.262 15.0091C18.3881 15.0118 19.4671 15.4614 20.262 16.2591C20.355 16.3528 20.4656 16.4272 20.5874 16.478C20.7093 16.5287 20.84 16.5549 20.972 16.5549C21.104 16.5549 21.2347 16.5287 21.3566 16.478C21.4784 16.4272 21.589 16.3528 21.682 16.2591C22.5003 15.55 23.5575 15.1782 24.6395 15.2191C25.7216 15.26 26.7477 15.7104 27.5102 16.4793C28.2727 17.2481 28.7146 18.2779 28.7465 19.3603C28.7784 20.4426 28.3979 21.4967 27.682 22.3091H27.762Z" fill="black"/>
</svg>
